<svg
  width="92"
  height="90"
  viewBox="0 0 92 90"
  fill="none"
  xmlns="http://www.w3.org/2000/svg"
>
<path
    d="M61.3334 33.75C61.3334 53.7375 30.6667 53.7375 30.6667 33.75H38.3334C38.3334 43.7625 53.6667 43.7625 53.6667 33.75M76.6667 67.5V78.75H15.3334V67.5C15.3334 57.4875 35.765 52.5 46 52.5C56.235 52.5 76.6667 57.4875 76.6667 67.5ZM69.3834 67.5C69.3834 65.1 57.385 59.625 46 59.625C34.615 59.625 22.6167 65.1 22.6167 67.5V71.625H69.3834M47.9167 7.5C48.99 7.5 49.8334 8.325 49.8334 9.375V20.625H53.6667V11.25C56.3796 12.4782 58.6525 14.4757 60.1905 16.9833C61.7285 19.4909 62.4606 22.3928 62.2917 25.3125C62.2917 25.3125 64.975 25.8375 65.1667 30H26.8334C26.8334 25.8375 29.7084 25.3125 29.7084 25.3125C29.5395 22.3928 30.2716 19.4909 31.8096 16.9833C33.3476 14.4757 35.6205 12.4782 38.3334 11.25V20.625H42.1667V9.375C42.1667 8.325 43.01 7.5 44.0834 7.5"
    fill="#FFCA42"
  />
</svg>
